<svg xmlns="http://www.w3.org/2000/svg" viewBox="0 0 24 24" width="24" height="24" fill="currentColor">
  <rect x="3" y="2.5" width="12" height="2.2" rx="1.1"/>
  <path fill-rule="evenodd" d="M4 7.4h13.2a3.6 3.6 0 0 1 0 7.2H4a3.6 3.6 0 0 1 0-7.2zm1.2 2.6a1 1 0 0 0 0 2h8.6a1 1 0 0 0 0-2z"/>
  <rect x="3" y="17.3" width="7" height="2.2" rx="1.1"/>
  <path d="M16 15.2h5.2a1.8 1.8 0 0 1 1.8 1.8v2.6a1.8 1.8 0 0 1-1.8 1.8h-1.8l-3.2 2.4.6-2.4H16a1.8 1.8 0 0 1-1.8-1.8V17a1.8 1.8 0 0 1 1.8-1.8z"/>
</svg>
